<svg width="36" height="36" viewBox="0 0 36 36" fill="none" xmlns="http://www.w3.org/2000/svg">
<g clip-path="url(#clip0_43_1292)">
<g clip-path="url(#clip1_43_1292)">
<g clip-path="url(#clip2_43_1292)">
<g clip-path="url(#clip3_43_1292)">
<mask id="mask0_43_1292" style="mask-type:alpha" maskUnits="userSpaceOnUse" x="0" y="4" width="36" height="25">
<path fill-rule="evenodd" clip-rule="evenodd" d="M0 10.5L6.73077 26.6538L6.73131 26.6551C7.19743 27.7724 8.28937 28.5 9.5 28.5H26.5C27.0095 28.5 27.498 28.3711 27.9277 28.1385L0 10.5Z" fill="url(#paint0_linear_43_1292)"/>
<path fill-rule="evenodd" clip-rule="evenodd" d="M9.49995 28.5H26.5C27.7098 28.5 28.8011 27.7733 29.2678 26.6573L29.2692 26.6538L36 10.5L8.07227 28.1385C8.50193 28.3711 8.99043 28.5 9.49995 28.5Z" fill="url(#paint1_linear_43_1292)"/>
<path fill-rule="evenodd" clip-rule="evenodd" d="M9.49978 28.5H26.4998C27.1429 28.5 27.7524 28.2947 28.2525 27.9348L17.9998 4.5L7.74707 27.9348C8.24715 28.2947 8.85672 28.5 9.49978 28.5Z" fill="black"/>
</mask>
<g mask="url(#mask0_43_1292)">
<path d="M0 0H36V36H0V0Z" fill="#5C636B"/>
</g>
</g>
</g>
</g>
</g>
<defs>
<linearGradient id="paint0_linear_43_1292" x1="14.5629" y1="10.5" x2="14.5629" y2="28.5" gradientUnits="userSpaceOnUse">
<stop/>
<stop offset="1" stop-opacity="0.7"/>
</linearGradient>
<linearGradient id="paint1_linear_43_1292" x1="21.437" y1="10.5" x2="21.437" y2="28.5" gradientUnits="userSpaceOnUse">
<stop/>
<stop offset="1" stop-opacity="0.7"/>
</linearGradient>
<clipPath id="clip0_43_1292">
<rect width="36" height="36" rx="11.25" fill="white"/>
</clipPath>
<clipPath id="clip1_43_1292">
<rect width="36" height="36" fill="white"/>
</clipPath>
<clipPath id="clip2_43_1292">
<rect width="36" height="36" fill="white"/>
</clipPath>
<clipPath id="clip3_43_1292">
<rect width="36" height="36" fill="white"/>
</clipPath>
</defs>
</svg>
