<svg width="36" height="36" viewBox="0 0 36 36" fill="none" xmlns="http://www.w3.org/2000/svg">
<g clip-path="url(#clip0_43_1324)">
<g clip-path="url(#clip1_43_1324)">
<g clip-path="url(#clip2_43_1324)">
<mask id="mask0_43_1324" style="mask-type:alpha" maskUnits="userSpaceOnUse" x="0" y="1" width="36" height="34">
<path fill-rule="evenodd" clip-rule="evenodd" d="M22.5 18V24L31.5 16.5V19.4998C31.5 24.4705 27.4705 28.5 22.4998 28.4999H13.5V34.5L0 23.25L13.5 12V18H22.5Z" fill="black"/>
<path d="M4.5 16.5V19.5L13.5 12V18H22.5V24L36 12.75L22.5 1.5V7.5H13.5C8.52944 7.5 4.5 11.5294 4.5 16.5Z" fill="url(#paint0_linear_43_1324)"/>
</mask>
<g mask="url(#mask0_43_1324)">
<path d="M0 0H36V36H0V0Z" fill="white"/>
</g>
</g>
</g>
</g>
<defs>
<linearGradient id="paint0_linear_43_1324" x1="36" y1="12" x2="4.5" y2="12" gradientUnits="userSpaceOnUse">
<stop stop-opacity="0.5"/>
<stop offset="1" stop-opacity="0.3"/>
</linearGradient>
<clipPath id="clip0_43_1324">
<rect width="36" height="36" rx="11.25" fill="white"/>
</clipPath>
<clipPath id="clip1_43_1324">
<rect width="36" height="36" fill="white"/>
</clipPath>
<clipPath id="clip2_43_1324">
<rect width="36" height="36" fill="white"/>
</clipPath>
</defs>
</svg>
