<svg width="16" height="16" viewBox="0 0 16 16" fill="none" xmlns="http://www.w3.org/2000/svg">
<g clip-path="url(#clip0_59_1266)">
<g clip-path="url(#clip1_59_1266)">
<g clip-path="url(#clip2_59_1266)">
<mask id="mask0_59_1266" style="mask-type:alpha" maskUnits="userSpaceOnUse" x="0" y="3" width="16" height="10">
<path fill-rule="evenodd" clip-rule="evenodd" d="M0.666687 3.33325H15.3334V9.33325C15.3334 11.1742 13.841 12.6666 12 12.6666H0.666687V3.33325ZM9.33335 7.99992C9.33335 6.89532 10.2288 5.99992 11.3334 5.99992C12.438 5.99992 13.3334 6.89532 13.3334 7.99992C13.3334 9.10452 12.438 9.99992 11.3334 9.99992C10.2288 9.99992 9.33335 9.10452 9.33335 7.99992ZM4.00002 6.66659C4.00002 6.2984 4.2985 5.99992 4.66669 5.99992C5.03487 5.99992 5.33335 6.2984 5.33335 6.66659V7.33325H6.00002C6.36821 7.33325 6.66669 7.63172 6.66669 7.99992C6.66669 8.36812 6.36821 8.66658 6.00002 8.66658H5.33335V9.33325C5.33335 9.70145 5.03487 9.99992 4.66669 9.99992C4.2985 9.99992 4.00002 9.70145 4.00002 9.33325V8.66658H3.33335C2.96517 8.66658 2.66669 8.36812 2.66669 7.99992C2.66669 7.63172 2.96517 7.33325 3.33335 7.33325H4.00002V6.66659Z" fill="black"/>
<path opacity="0.3" d="M9.33337 8C9.33337 6.8954 10.2288 6 11.3334 6C12.438 6 13.3334 6.8954 13.3334 8C13.3334 9.1046 12.438 10 11.3334 10C10.2288 10 9.33337 9.1046 9.33337 8Z" fill="black"/>
</mask>
<g mask="url(#mask0_59_1266)">
<path d="M0 0H16V16H0V0Z" fill="#65707D"/>
</g>
</g>
</g>
</g>
<defs>
<clipPath id="clip0_59_1266">
<rect width="16" height="16" rx="5" fill="white"/>
</clipPath>
<clipPath id="clip1_59_1266">
<rect width="16" height="16" fill="white"/>
</clipPath>
<clipPath id="clip2_59_1266">
<rect width="16" height="16" fill="white"/>
</clipPath>
</defs>
</svg>
