<svg width="16" height="16" viewBox="0 0 16 16" fill="none" xmlns="http://www.w3.org/2000/svg">
<g clip-path="url(#clip0_59_1303)">
<g clip-path="url(#clip1_59_1303)">
<g clip-path="url(#clip2_59_1303)">
<mask id="mask0_59_1303" style="mask-type:alpha" maskUnits="userSpaceOnUse" x="2" y="2" width="12" height="12">
<path fill-rule="evenodd" clip-rule="evenodd" d="M11.3333 2H2V11.3333C2 12.8061 3.19391 14 4.66667 14H11.3333V2ZM3.66667 5.66667C3.66667 6.77127 4.5621 7.66667 5.66667 7.66667H7C8.1046 7.66667 9 6.77127 9 5.66667V3.33333H8.33333C7.78107 3.33333 7.33333 3.78105 7.33333 4.33333V6H5.33333V3.33333H4.66667C4.11438 3.33333 3.66667 3.78105 3.66667 4.33333V5.66667Z" fill="url(#paint0_linear_59_1303)"/>
<path d="M11.3333 2H14V14H11.3333V2Z" fill="url(#paint1_linear_59_1303)"/>
</mask>
<g mask="url(#mask0_59_1303)">
<path d="M0 0H16V16H0V0Z" fill="#65707D"/>
</g>
</g>
</g>
</g>
<defs>
<linearGradient id="paint0_linear_59_1303" x1="6.33333" y1="2.33333" x2="6.39215" y2="14" gradientUnits="userSpaceOnUse">
<stop stop-opacity="0.85"/>
<stop offset="1"/>
</linearGradient>
<linearGradient id="paint1_linear_59_1303" x1="12.6666" y1="2" x2="12.6666" y2="14" gradientUnits="userSpaceOnUse">
<stop stop-opacity="0.5"/>
<stop offset="1" stop-opacity="0.65"/>
</linearGradient>
<clipPath id="clip0_59_1303">
<rect width="16" height="16" rx="5" fill="white"/>
</clipPath>
<clipPath id="clip1_59_1303">
<rect width="16" height="16" fill="white"/>
</clipPath>
<clipPath id="clip2_59_1303">
<rect width="16" height="16" fill="white"/>
</clipPath>
</defs>
</svg>
