<svg width="156" height="24" viewBox="0 0 156 24" fill="none" xmlns="http://www.w3.org/2000/svg">
<path opacity="0.6" d="M19.9167 13.1684C19.3875 16.98 16.0609 19.9167 12.0367 19.9167C10.6429 19.9196 9.27235 19.5595 8.06004 18.8717C6.84773 19.5595 5.47719 19.9196 4.08337 19.9167V13.1684H8.37671C8.81125 13.1691 9.23619 13.0406 9.59754 12.7992L10.565 16.365H12.045L12.8534 11.2084L12.9034 11.455C13.1059 12.4509 13.9959 13.1684 15.03 13.1684H19.9167Z" fill="white" fill-opacity="0.5"/>
<path opacity="0.95" d="M19.9167 11.62C19.7284 7.42504 16.2559 4.08337 12 4.08337C7.74421 4.08337 4.27171 7.42587 4.08337 11.62H8.35337C8.5139 11.6203 8.66989 11.5668 8.79657 11.4682C8.92324 11.3696 9.01334 11.2315 9.05254 11.0759L9.18587 10.5425H10.4884L11.09 12.7917L11.9917 6.95421H13.455L14.2759 11.0425C14.3425 11.3784 14.6392 11.62 14.9825 11.62H19.9167Z" fill="white" fill-opacity="0.5"/>
<path d="M56.8375 17.4167C50.4308 17.4167 46.7775 13.35 46.625 6.58337H49.8333C49.9392 11.55 52.305 13.6542 54.1792 14.0875V6.58337H57.2008V10.8667C59.0508 10.6825 60.995 8.73087 61.6508 6.58337H64.6725C64.1683 9.22921 62.0608 11.1817 60.5617 11.9834C62.0608 12.6342 64.4617 14.3367 65.375 17.4167H62.0492C61.3342 15.3559 59.5542 13.7625 57.2008 13.545V17.4167H56.8375Z" fill="url(#paint0_linear_11_3053)"/>
<path fill-rule="evenodd" clip-rule="evenodd" d="M103.036 10.2325C102.638 10.635 102.165 10.9547 101.643 11.173C101.121 11.3913 100.562 11.5038 99.9959 11.5041C99.4304 11.5024 98.8709 11.3892 98.3492 11.171C97.8276 10.9528 97.3541 10.6339 96.9559 10.2325C96.1464 9.4182 95.6925 8.31646 95.6934 7.16831C95.6934 5.96915 96.1809 4.88498 96.9559 4.10498C97.3532 3.70243 97.8266 3.38275 98.3484 3.16447C98.8702 2.94618 99.4302 2.83362 99.9959 2.83331C101.186 2.83331 102.262 3.32498 103.036 4.10498C103.845 4.91905 104.299 6.02046 104.298 7.16831C104.299 8.31646 103.845 9.4182 103.036 10.2325ZM99.9959 5.18915C99.465 5.18915 98.9775 5.40581 98.6192 5.76665C98.2572 6.13857 98.0517 6.63519 98.045 7.15415C98.045 7.68915 98.2609 8.17998 98.6192 8.54165C98.9634 8.90248 99.4509 9.11998 99.9959 9.11998C100.252 9.11966 100.506 9.06837 100.742 8.96908C100.979 8.8698 101.193 8.7245 101.373 8.54165C101.731 8.19498 101.946 7.70331 101.946 7.15415C101.946 6.61915 101.731 6.12831 101.373 5.76665C101.194 5.58172 100.981 5.43511 100.744 5.3358C100.507 5.2365 100.253 5.18659 99.9959 5.18915Z" fill="url(#paint1_linear_11_3053)"/>
<path d="M104.527 11.5176L105.789 13.2526C105.862 13.3392 105.847 13.4542 105.732 13.5267C104.69 14.3848 103.463 14.9885 102.147 15.2901L104.814 20.0301C104.886 20.1742 104.8 20.3334 104.642 20.3334H102.032C101.992 20.3327 101.953 20.3199 101.919 20.2968C101.886 20.2736 101.861 20.2411 101.846 20.2034L99.9816 16.0117L98.1175 20.2034C98.0883 20.2901 98.0175 20.3334 97.9308 20.3334H95.3208C95.1775 20.3334 95.0766 20.1601 95.1483 20.0301L97.8158 15.2901C96.5023 14.9823 95.2763 14.3793 94.2308 13.5267C94.1952 13.4911 94.1729 13.4444 94.1676 13.3944C94.1623 13.3443 94.1743 13.294 94.2016 13.2517L95.4641 11.5184C95.5012 11.4762 95.5529 11.4497 95.6088 11.4443C95.6647 11.4389 95.7205 11.4549 95.765 11.4892C96.9558 12.5151 98.4183 13.1801 99.9958 13.1801C101.573 13.1801 103.036 12.5151 104.227 11.4884C104.247 11.4683 104.272 11.453 104.299 11.4434C104.326 11.4339 104.355 11.4305 104.384 11.4333C104.413 11.4362 104.44 11.4453 104.465 11.46C104.49 11.4747 104.511 11.4946 104.527 11.5184V11.5176Z" fill="url(#paint2_linear_11_3053)"/>
<path d="M135.922 11.4325C140.172 9.43248 143.006 8.11498 144.424 7.47831C148.473 5.65998 149.314 5.34415 149.862 5.33331C149.983 5.33165 150.253 5.36331 150.427 5.51665C150.575 5.64581 150.616 5.81998 150.636 5.94248C150.655 6.06498 150.679 6.34415 150.66 6.56248C150.44 9.05165 149.491 15.0916 149.007 17.8791C148.803 19.0591 148.401 19.4541 148.012 19.4933C147.165 19.5766 146.522 18.8891 145.702 18.3083C144.418 17.4 143.693 16.835 142.448 15.9491C141.009 14.9241 141.942 14.3616 142.762 13.4416C142.977 13.2008 146.707 9.53831 146.779 9.20581C146.788 9.16415 146.797 9.00915 146.712 8.92748C146.627 8.84581 146.501 8.87331 146.41 8.89581C146.281 8.92748 144.232 10.39 140.26 13.2841C139.678 13.7158 139.152 13.9258 138.679 13.915C138.158 13.9025 137.157 13.5966 136.412 13.3358C135.5 13.015 134.774 12.8458 134.837 12.3016C134.871 12.0183 135.232 11.7283 135.922 11.4325Z" fill="url(#paint3_linear_11_3053)"/>
<defs>
<linearGradient id="paint0_linear_11_3053" x1="56" y1="6.58337" x2="56" y2="17.4167" gradientUnits="userSpaceOnUse">
<stop stop-color="white" stop-opacity="0.5"/>
<stop offset="1" stop-color="white" stop-opacity="0.35"/>
</linearGradient>
<linearGradient id="paint1_linear_11_3053" x1="100" y1="2.83331" x2="100" y2="20.3333" gradientUnits="userSpaceOnUse">
<stop stop-color="white" stop-opacity="0.5"/>
<stop offset="1" stop-color="white" stop-opacity="0.35"/>
</linearGradient>
<linearGradient id="paint2_linear_11_3053" x1="100" y1="2.83339" x2="100" y2="20.3334" gradientUnits="userSpaceOnUse">
<stop stop-color="white" stop-opacity="0.5"/>
<stop offset="1" stop-color="white" stop-opacity="0.35"/>
</linearGradient>
<linearGradient id="paint3_linear_11_3053" x1="142.75" y1="5.33331" x2="142.75" y2="19.5" gradientUnits="userSpaceOnUse">
<stop stop-color="white" stop-opacity="0.5"/>
<stop offset="1" stop-color="white" stop-opacity="0.35"/>
</linearGradient>
</defs>
</svg>
