<svg width="36" height="36" viewBox="0 0 36 36" fill="none" xmlns="http://www.w3.org/2000/svg">
<g clip-path="url(#clip0_38_148)">
<g clip-path="url(#clip1_38_148)">
<g clip-path="url(#clip2_38_148)">
<mask id="mask0_38_148" style="mask-type:alpha" maskUnits="userSpaceOnUse" x="1" y="2" width="34" height="32">
<path d="M28.3077 32.1739L24.8113 21.4132L18 26.3619L27.1536 33.0124C27.7413 33.4394 28.5322 32.8648 28.3077 32.1739Z" fill="url(#paint0_linear_38_148)"/>
<path d="M17.2868 2.64531C17.5113 1.95433 18.4889 1.95433 18.7134 2.64531L22.2097 13.406H33.5241C34.2507 13.406 34.5527 14.3357 33.965 14.7627L24.8114 21.4132L18.0001 26.3619L8.84654 33.0123C8.25876 33.4394 7.4679 32.8648 7.69241 32.1738L11.1887 21.4132L2.03521 14.7627C1.44742 14.3357 1.7495 13.406 2.47605 13.406H13.7904L17.2868 2.64531Z" fill="black"/>
</mask>
<g mask="url(#mask0_38_148)">
<path d="M0 0H36V36H0V0Z" fill="#428BF9"/>
</g>
</g>
</g>
</g>
<defs>
<linearGradient id="paint0_linear_38_148" x1="21.75" y1="24.0001" x2="28.5" y2="33.0001" gradientUnits="userSpaceOnUse">
<stop stop-opacity="0.6"/>
<stop offset="1" stop-opacity="0.8"/>
</linearGradient>
<clipPath id="clip0_38_148">
<rect width="36" height="36" rx="11.25" fill="white"/>
</clipPath>
<clipPath id="clip1_38_148">
<rect width="36" height="36" fill="white"/>
</clipPath>
<clipPath id="clip2_38_148">
<rect width="36" height="36" fill="white"/>
</clipPath>
</defs>
</svg>
