<svg width="64" height="64" viewBox="0 0 64 64" fill="none" xmlns="http://www.w3.org/2000/svg">
<g clip-path="url(#clip0_43_4079)">
<rect width="64" height="64" rx="20" fill="white"/>
<g clip-path="url(#clip1_43_4079)">
<g clip-path="url(#clip2_43_4079)">
<mask id="mask0_43_4079" style="mask-type:alpha" maskUnits="userSpaceOnUse" x="18" y="18" width="28" height="28">
<path fill-rule="evenodd" clip-rule="evenodd" d="M40.0003 18.6665H18.667V39.9998H24.0003V23.9998H40.0003V18.6665Z" fill="url(#paint0_linear_43_4079)"/>
<path fill-rule="evenodd" clip-rule="evenodd" d="M24 39.8016L25.1614 40.6973C26.4549 41.6949 28.2774 41.4989 29.3421 40.2476L33.1281 35.798C33.9448 34.8382 35.395 34.8323 36.219 35.7856L36.4595 36.0638C37.6954 37.4937 39.8707 37.485 41.0958 36.0452L45.3333 31.0649V41.333C45.3333 43.5421 43.5425 45.333 41.3333 45.333H24V39.8016Z" fill="url(#paint1_linear_43_4079)"/>
<path fill-rule="evenodd" clip-rule="evenodd" d="M24 39.8015V34.5418C24.0543 34.5593 24.1075 34.5868 24.1576 34.6254L26.6902 36.5787C27.1213 36.9112 27.7288 36.8459 28.0837 36.4288L33.2163 30.3966C34.0012 29.4741 35.3812 29.4269 36.2241 30.2936L38.0092 32.1293C38.4306 32.5627 39.1206 32.5391 39.5131 32.0778L45.0972 25.515C45.1657 25.4345 45.2474 25.3825 45.3333 25.3555V31.0648L41.0958 36.0451C39.8707 37.4849 37.6954 37.4937 36.4595 36.0638L36.219 35.7855C35.395 34.8322 33.9448 34.8381 33.1281 35.7979L29.3421 40.2475C28.2774 41.4988 26.4549 41.6948 25.1614 40.6972L24 39.8015Z" fill="black"/>
<path fill-rule="evenodd" clip-rule="evenodd" d="M45.3333 31.0647V23.9995L24 23.9996V39.8014L25.1614 40.6971C26.4549 41.6947 28.2774 41.4987 29.3421 40.2474L33.1281 35.7978C33.9448 34.838 35.395 34.8321 36.219 35.7854L36.4595 36.0637C37.6954 37.4936 39.8707 37.4848 41.0958 36.045L45.3333 31.0647Z" fill="url(#paint2_linear_43_4079)"/>
</mask>
<g mask="url(#mask0_43_4079)">
<path d="M0 0H64V64H0V0Z" fill="black" fill-opacity="0.54"/>
</g>
</g>
</g>
</g>
<defs>
<linearGradient id="paint0_linear_43_4079" x1="33.3336" y1="18.6665" x2="29.3336" y2="39.9998" gradientUnits="userSpaceOnUse">
<stop/>
<stop offset="1" stop-opacity="0.7"/>
</linearGradient>
<linearGradient id="paint1_linear_43_4079" x1="22.6667" y1="37.3332" x2="45.9728" y2="40.2864" gradientUnits="userSpaceOnUse">
<stop stop-opacity="0.8"/>
<stop offset="1" stop-opacity="0.5"/>
</linearGradient>
<linearGradient id="paint2_linear_43_4079" x1="24" y1="22.3408" x2="48.9437" y2="31.4897" gradientUnits="userSpaceOnUse">
<stop stop-opacity="0.2"/>
<stop offset="1" stop-opacity="0.3"/>
</linearGradient>
<clipPath id="clip0_43_4079">
<rect width="64" height="64" rx="20" fill="white"/>
</clipPath>
<clipPath id="clip1_43_4079">
<rect width="64" height="64" fill="white"/>
</clipPath>
<clipPath id="clip2_43_4079">
<rect width="64" height="64" fill="white"/>
</clipPath>
</defs>
</svg>
