<svg width="64" height="64" viewBox="0 0 64 64" fill="none" xmlns="http://www.w3.org/2000/svg">
<g clip-path="url(#clip0_43_4064)">
<rect width="64" height="64" rx="20" fill="white"/>
<g clip-path="url(#clip1_43_4064)">
<g clip-path="url(#clip2_43_4064)">
<mask id="mask0_43_4064" style="mask-type:alpha" maskUnits="userSpaceOnUse" x="16" y="18" width="33" height="28">
<path d="M16 42C16 39.7909 17.7909 38 20 38H25.3333V42C25.3333 44.2091 23.5425 46 21.3333 46H16V42Z" fill="url(#paint0_linear_43_4064)"/>
<path d="M25.333 36.6665C25.333 34.4573 27.1239 32.6665 29.333 32.6665H34.6664V41.9998C34.6664 44.2089 32.8755 45.9998 30.6664 45.9998H25.333V36.6665Z" fill="url(#paint1_linear_43_4064)"/>
<path d="M30.667 28.6667L39.3336 18L48.0003 28.6667H44.0003V42C44.0003 44.2091 42.2094 46 40.0003 46H34.667V28.6667H30.667Z" fill="url(#paint2_linear_43_4064)"/>
</mask>
<g mask="url(#mask0_43_4064)">
<path d="M0 0H64V64H0V0Z" fill="black" fill-opacity="0.54"/>
</g>
</g>
</g>
</g>
<defs>
<linearGradient id="paint0_linear_43_4064" x1="16.6667" y1="39.3333" x2="24" y2="46" gradientUnits="userSpaceOnUse">
<stop stop-opacity="0.5"/>
<stop offset="1" stop-opacity="0.4"/>
</linearGradient>
<linearGradient id="paint1_linear_43_4064" x1="25.9997" y1="34.8887" x2="36.3224" y2="40.5193" gradientUnits="userSpaceOnUse">
<stop stop-opacity="0.7"/>
<stop offset="1" stop-opacity="0.5"/>
</linearGradient>
<linearGradient id="paint2_linear_43_4064" x1="40.0003" y1="18" x2="52.9767" y2="37.2547" gradientUnits="userSpaceOnUse">
<stop/>
<stop offset="0.571429" stop-opacity="0.9"/>
<stop offset="1" stop-opacity="0.5"/>
</linearGradient>
<clipPath id="clip0_43_4064">
<rect width="64" height="64" rx="20" fill="white"/>
</clipPath>
<clipPath id="clip1_43_4064">
<rect width="64" height="64" fill="white"/>
</clipPath>
<clipPath id="clip2_43_4064">
<rect width="64" height="64" fill="white"/>
</clipPath>
</defs>
</svg>
